<svg xmlns="http://www.w3.org/2000/svg" width="1664" height="354" viewBox="0 0 1664 354" version="1.1"><path d="" stroke="none" fill="#1474f4" fill-rule="evenodd"/><path d="M 1155.500 19.593 C 1142.994 22.386, 1134.172 28.157, 1124.782 39.686 C 1103.441 65.890, 1090.657 109.043, 1089.140 160 L 1088.500 181.500 1084 182.176 C 1081.525 182.548, 1074.543 182.885, 1068.484 182.926 C 1055.978 183.010, 1052.094 184.368, 1048.250 189.999 C 1043.898 196.376, 1046.095 206.030, 1052.856 210.234 C 1056.165 212.292, 1057.695 212.497, 1069.500 212.463 C 1076.650 212.443, 1084.188 212.085, 1086.250 211.668 L 1090 210.909 1090.037 217.205 C 1090.058 220.667, 1090.741 231.600, 1091.555 241.500 C 1092.369 251.400, 1093.298 268.275, 1093.619 279 C 1094.304 301.921, 1095.472 307.451, 1100.573 311.930 C 1104.610 315.475, 1107.765 316.462, 1112.564 315.683 C 1120.316 314.425, 1125.698 307.244, 1124.580 299.648 C 1124.245 297.367, 1123.563 286.500, 1123.065 275.500 C 1122.568 264.500, 1121.701 250.325, 1121.140 244 C 1120.580 237.675, 1119.814 227.047, 1119.440 220.382 L 1118.759 208.263 1123.592 207.538 C 1126.250 207.140, 1138.567 206.968, 1150.963 207.157 C 1172.949 207.492, 1173.576 207.445, 1176.627 205.270 C 1186.107 198.507, 1184.485 183.892, 1173.763 179.469 C 1170.069 177.945, 1166.043 177.712, 1143.598 177.719 L 1117.695 177.727 1118.308 159.614 C 1118.922 141.453, 1121.963 119.059, 1125.552 106.268 C 1131.557 84.862, 1140.428 65.892, 1148.519 57.152 C 1155.866 49.217, 1160.018 47.611, 1171.718 48.177 C 1179.316 48.545, 1181.350 49.056, 1186.801 51.968 C 1190.267 53.819, 1194.279 56.721, 1195.718 58.417 C 1199.189 62.510, 1204.353 73.796, 1208.234 85.772 C 1211.940 97.209, 1213.757 100.182, 1218.381 102.377 C 1224.604 105.330, 1229.706 104.362, 1235.266 99.175 C 1240.201 94.572, 1240.566 90.322, 1237.009 78.872 C 1227.971 49.780, 1218.029 35.133, 1201.365 26.359 C 1187.567 19.093, 1169.601 16.443, 1155.500 19.593 M 48.121 84.710 C 41.134 88.152, 38.916 97.357, 40.896 114.701 C 43.283 135.612, 45.230 175.935, 44.894 197.500 C 44.842 200.800, 45.257 206.200, 45.816 209.500 C 47.149 217.377, 47.276 242.143, 46.001 245.498 C 45.451 246.944, 44.710 254.539, 44.354 262.377 C 43.767 275.281, 43.909 277.256, 45.853 283.273 C 47.034 286.928, 48 290.431, 48 291.058 C 48 294.031, 51.716 299.441, 55.406 301.839 C 57.658 303.303, 61.429 305.949, 63.786 307.719 C 77.595 318.090, 100.854 321.889, 120.241 316.938 C 155.038 308.054, 183.445 277.545, 188.620 243.500 C 194.412 205.399, 169.339 168.576, 131.003 158.882 C 115.925 155.069, 88.852 157.445, 76.750 163.643 C 74.227 164.935, 74 164.897, 74 163.177 C 74 158.776, 70.917 118.249, 70.386 115.663 C 70.065 114.103, 69.813 108.429, 69.826 103.054 C 69.845 95.160, 69.481 92.676, 67.934 90.131 C 63.910 83.515, 55.319 81.164, 48.121 84.710 M 551.479 94.012 C 546.888 94.987, 543.360 97.721, 541.420 101.809 C 539.853 105.111, 539.791 106.501, 540.832 115 C 542.108 125.416, 544.781 157.838, 548.006 202 C 552.237 259.947, 553.149 270.848, 555.074 286.500 C 557.959 309.959, 558.506 312.129, 562.506 316.006 C 566.986 320.348, 574.663 321.265, 579.759 318.065 C 585.284 314.595, 587.220 310.468, 586.588 303.500 C 585.695 293.639, 584.041 279.656, 583.483 277.250 C 582.846 274.501, 583.871 274.439, 589.305 276.899 C 591.612 277.944, 598.860 280.913, 605.410 283.497 C 619.555 289.078, 657.062 307.058, 661.430 310.352 C 671.710 318.105, 678.584 319.771, 684.759 316.005 C 691.419 311.945, 693.818 303.634, 690.406 296.443 C 688.561 292.556, 675.995 284, 661.362 276.670 C 645.810 268.880, 622.510 258.277, 614.939 255.546 C 610.967 254.113, 607.075 252.582, 606.291 252.143 C 604.668 251.235, 608.965 245.909, 631.186 221.293 C 659.557 189.864, 664.166 182.023, 659.536 173.069 C 656.841 167.859, 652.390 165, 646.970 165 C 639.850 165, 637.510 166.511, 631.598 174.930 C 628.675 179.094, 621.832 187.482, 616.391 193.571 C 610.951 199.659, 602.496 209.109, 597.602 214.571 C 592.709 220.032, 586.908 226.874, 584.712 229.777 C 582.516 232.679, 580.531 234.865, 580.301 234.634 C 579.926 234.259, 579.007 222.498, 573.492 147.500 C 571.686 122.933, 569.457 105.796, 567.484 101.299 C 565.125 95.925, 557.921 92.645, 551.479 94.012 M 786.500 115.905 C 783.108 117.410, 779.347 122.264, 777.519 127.500 C 776.176 131.342, 775.654 137.048, 775.261 152.144 L 774.749 171.787 753.125 172.428 C 726.721 173.211, 725.814 173.346, 721.493 177.141 C 714.737 183.073, 714.755 192.943, 721.532 198.894 C 723.460 200.586, 726.041 202.210, 727.268 202.502 C 728.496 202.794, 739.400 202.643, 751.500 202.167 C 763.600 201.692, 773.837 201.486, 774.250 201.710 C 774.663 201.934, 775.006 206.929, 775.013 212.809 C 775.040 234.155, 779.635 274.810, 783.852 291 C 786.158 299.855, 791.524 311.980, 795.668 317.701 C 807.010 333.358, 824.564 339.464, 841.275 333.567 C 849.644 330.613, 862.160 322.931, 864.552 319.280 C 867.473 314.823, 867.600 308.114, 864.839 304.092 C 858.582 294.975, 852.337 294.249, 840.412 301.251 C 828.569 308.205, 823.799 307.633, 818.520 298.624 C 814.583 291.906, 812.111 283.640, 809.514 268.500 C 806.970 253.672, 803.992 220.809, 803.997 207.612 L 804 199.724 821.750 200.428 C 840.895 201.188, 856.677 199.671, 863.548 196.410 C 873.141 191.858, 873.832 176.610, 864.701 170.914 C 862.118 169.303, 860.438 169.028, 856 169.492 C 852.975 169.808, 840.038 170.313, 827.250 170.614 L 804 171.161 804.071 160.831 C 804.134 151.646, 804.785 143.880, 806.621 130.376 C 807.253 125.722, 805.696 121.907, 801.603 118.083 C 798.786 115.452, 790.285 114.226, 786.500 115.905 M 430.500 161.022 C 407.741 165.590, 379 188.609, 379 202.269 C 379 205.070, 377.798 208.124, 374.650 213.320 C 368.476 223.511, 366.336 228.820, 364.957 237.369 C 362.117 254.972, 369.746 277.417, 384.688 295.418 C 407.190 322.527, 445.649 328.845, 480.640 311.182 C 519.695 291.467, 533.476 255.110, 517.757 213.262 C 507.684 186.445, 489.359 169.095, 463.559 161.945 C 456.129 159.886, 438.598 159.397, 430.500 161.022 M 262.500 162.022 C 239.741 166.590, 211 189.609, 211 203.269 C 211 206.070, 209.798 209.124, 206.650 214.320 C 200.476 224.511, 198.336 229.820, 196.957 238.369 C 194.117 255.972, 201.746 278.417, 216.688 296.418 C 239.190 323.527, 277.649 329.845, 312.640 312.182 C 351.695 292.467, 365.476 256.110, 349.757 214.262 C 339.684 187.445, 321.359 170.095, 295.559 162.945 C 288.129 160.886, 270.598 160.397, 262.500 162.022 M 938.500 170.022 C 915.741 174.590, 887 197.609, 887 211.269 C 887 214.070, 885.798 217.124, 882.650 222.320 C 876.476 232.511, 874.336 237.820, 872.957 246.369 C 870.117 263.972, 877.746 286.417, 892.688 304.418 C 915.190 331.527, 953.649 337.845, 988.640 320.182 C 1027.695 300.467, 1041.476 264.110, 1025.757 222.262 C 1015.684 195.445, 997.359 178.095, 971.559 170.945 C 964.129 168.886, 946.598 168.397, 938.500 170.022 M 1412.500 177.894 C 1399.161 181.221, 1387.736 188.232, 1376.883 199.748 C 1362.209 215.317, 1354.652 231.764, 1353.322 251.025 C 1351.896 271.666, 1361.790 293.600, 1377.839 305.382 C 1386.476 311.722, 1398.442 316.742, 1410.500 319.084 C 1427.933 322.469, 1459.990 317.740, 1467.845 310.624 C 1475.437 303.746, 1474.425 292.278, 1465.759 286.995 C 1461.374 284.321, 1457.444 284.485, 1447.704 287.750 C 1440.570 290.141, 1437.935 290.500, 1427.500 290.500 C 1416.736 290.500, 1414.624 290.192, 1407 287.509 C 1399.940 285.025, 1397.547 283.585, 1392.874 279.009 C 1377.109 263.570, 1379.831 238.779, 1399.482 218.851 C 1406.896 211.331, 1412.012 208.311, 1420.259 206.586 C 1428.574 204.846, 1431.328 205.431, 1434.517 209.611 C 1438.300 214.571, 1442.289 216.307, 1448.686 215.776 C 1452.843 215.431, 1454.707 214.697, 1456.999 212.501 C 1462.901 206.847, 1463.318 200.061, 1458.292 191.467 C 1450.832 178.710, 1431.818 173.074, 1412.500 177.894 M 1545.500 179.499 C 1524.946 182.709, 1511.058 193.107, 1501.562 212.396 C 1493.661 228.446, 1490.588 241.826, 1490.629 260 C 1490.723 301.840, 1517.280 325.512, 1560.917 322.650 C 1578.158 321.520, 1599.192 316.725, 1605.744 312.432 C 1613.735 307.196, 1613.908 294.631, 1606.066 289.047 C 1601.238 285.609, 1596.619 285.444, 1586.977 288.366 C 1574.836 292.046, 1565.338 293.257, 1552.097 292.813 C 1539.749 292.400, 1533.358 290.503, 1528.127 285.701 C 1523.993 281.905, 1520.767 273.325, 1520.225 264.684 L 1519.735 256.868 1523.118 258.931 C 1526 260.688, 1528.125 260.989, 1537.500 260.970 C 1550.632 260.944, 1563.883 259.755, 1581.500 257.022 C 1588.650 255.913, 1599.148 254.375, 1604.828 253.604 C 1613.092 252.482, 1615.659 251.732, 1617.673 249.851 C 1624.330 243.633, 1624.887 234.464, 1619.415 221.193 C 1614.428 209.100, 1610.836 203.121, 1604.994 197.186 C 1591.633 183.613, 1566.672 176.192, 1545.500 179.499 M 1232.500 186.379 C 1216.154 190.937, 1205.430 197.598, 1192.373 211.305 C 1182.057 222.134, 1175.686 232.596, 1172.312 244.245 C 1164.829 270.081, 1176.444 296.071, 1201 308.434 C 1209.048 312.486, 1221.335 314.997, 1233.122 314.999 C 1257.328 315.002, 1284.940 301.072, 1299.054 281.738 L 1301.801 277.975 1302.400 283.988 C 1302.730 287.294, 1303.263 292.643, 1303.583 295.873 C 1304.349 303.582, 1306.913 307.632, 1312.629 310.160 C 1320.089 313.460, 1328.061 310.607, 1331.473 303.416 C 1333.248 299.675, 1333.215 298.763, 1329.893 259.548 C 1328.027 237.522, 1326.500 213.999, 1326.500 207.276 L 1326.500 195.052 1322.875 191.417 C 1314.490 183.011, 1301.209 187.082, 1297.988 199.045 C 1297.057 202.503, 1296.557 203, 1294.009 203 C 1291.865 203, 1289.827 201.736, 1286.298 198.216 C 1273.459 185.414, 1252.501 180.803, 1232.500 186.379 M 103 186.704 C 96.865 187.377, 87.308 191.002, 81.113 195.005 L 75.107 198.887 75.571 205.694 C 75.826 209.437, 76.483 227.986, 77.030 246.913 C 77.578 265.840, 78.451 281.838, 78.971 282.465 C 80.785 284.651, 88.986 288.119, 94.978 289.233 C 103.976 290.906, 114.331 289.023, 125 283.772 C 131.776 280.436, 135.228 277.855, 142.018 271.044 C 154.234 258.791, 160 246.761, 160 233.529 C 160 220.797, 155.125 209.117, 146.004 199.996 C 134.928 188.920, 121.275 184.700, 103 186.704 M 435.585 190.119 C 424.821 192.644, 409 203.656, 409 208.625 C 409 211.521, 407.432 215.074, 401.995 224.500 C 394.314 237.817, 393.711 239.601, 394.219 247.514 C 394.591 253.314, 395.467 256.307, 398.779 263.096 C 410.281 286.674, 430.435 296.462, 453.936 289.882 C 477.491 283.288, 492.948 268.072, 494.654 249.800 C 496.629 228.655, 483.321 203.002, 465.798 194.176 C 456.231 189.356, 445.170 187.871, 435.585 190.119 M 267.585 191.119 C 256.821 193.644, 241 204.656, 241 209.625 C 241 212.521, 239.432 216.074, 233.995 225.500 C 226.314 238.817, 225.711 240.601, 226.219 248.514 C 226.591 254.314, 227.467 257.307, 230.779 264.096 C 242.281 287.674, 262.435 297.462, 285.936 290.882 C 309.491 284.288, 324.948 269.072, 326.654 250.800 C 328.629 229.655, 315.321 204.002, 297.798 195.176 C 288.231 190.356, 277.170 188.871, 267.585 191.119 M 943.585 199.119 C 932.821 201.644, 917 212.656, 917 217.625 C 917 220.521, 915.432 224.074, 909.995 233.500 C 902.314 246.817, 901.711 248.601, 902.219 256.514 C 902.591 262.314, 903.467 265.307, 906.779 272.096 C 918.281 295.674, 938.435 305.462, 961.936 298.882 C 985.491 292.288, 1000.948 277.072, 1002.654 258.800 C 1004.629 237.655, 991.321 212.002, 973.798 203.176 C 964.231 198.356, 953.170 196.871, 943.585 199.119 M 1544.173 209.905 C 1541.120 210.959, 1537.198 213.353, 1534.988 215.512 C 1531.495 218.923, 1525 229.442, 1525 231.689 C 1525 232.189, 1526.463 232.481, 1528.250 232.338 C 1530.037 232.195, 1539.373 231.566, 1548.996 230.940 C 1565.028 229.898, 1587.493 226.840, 1588.813 225.520 C 1589.114 225.219, 1588.042 223.113, 1586.430 220.840 C 1579.065 210.452, 1558.213 205.056, 1544.173 209.905 M 1242 214.465 C 1230.434 217.161, 1220.498 223.504, 1211.273 234.081 C 1201.773 244.974, 1198.044 255.078, 1200.017 264.581 C 1202.160 274.902, 1209.509 281.478, 1222.482 284.679 C 1234.987 287.765, 1251.526 283.805, 1264.308 274.665 C 1271.673 269.398, 1276.193 264.005, 1279.746 256.244 C 1282.029 251.257, 1282.347 249.303, 1282.257 240.797 C 1282.201 235.442, 1281.869 230.596, 1281.519 230.030 C 1281.168 229.463, 1279.739 229, 1278.342 229 C 1273.880 229, 1269.053 225.947, 1266.425 221.462 C 1262.508 214.778, 1252.706 211.970, 1242 214.465" stroke="none" fill="#1c74f4" fill-rule="evenodd"/></svg>